<svg xmlns="http://www.w3.org/2000/svg" viewBox="0 0 512 512">
  <rect width="512" height="512" rx="112" fill="#000"/>
  <path fill="#f97316" d="M256 380c63.6 0 115.2-45.9 115.2-102.4 0-38.4-19.2-70.4-57.6-96 0 32-19.2 51.2-38.4 64-6.4-25.6-25.6-51.2-51.2-70.4-12.8 25.6-25.6 51.2-25.6 76.8 0 6.4.64 12.8 1.92 19.2C184.32 258.56 166.4 233 166.4 211.2c-19.2 25.6-25.6 51.2-25.6 76.8 0 51.2 51.2 92.16 115.2 92z"/>
  <text x="256" y="440" font-family="'JetBrains Mono', monospace" font-size="52" fill="rgba(249,115,22,0.4)" text-anchor="middle" font-weight="700">0x</text>
</svg>
